# xmcd CD database file
#
# Track frame offsets:
#	150
#	18830
#	37020
#	57482
#	73252
#	92642
#	115407
#	130817
#	151175
#	172675
#	198690
#
# Disc length: 2896 seconds
#
# Revision: 1
# Processed by: cddbd v1.5.2PL0 Copyright (c) Steve Scherf et al.
# Submitted via: CDex 1.70beta2
#
DISCID=930b4e0b
DTITLE=斉藤由貴 - moi
DYEAR=1994
DGENRE=JPop
TTITLE0=The April Fools (Japanese Version)
TTITLE1=We'll Sing In The Sunshine
TTITLE2=なぜ
TTITLE3=I Love How You Love Me
TTITLE4=夕暮れ日記
TTITLE5=好き!
TTITLE6=If
TTITLE7=答える声はなくても
TTITLE8=You Light Up My Life
TTITLE9=あなたと出逢って
TTITLE10=The April Fools (Original Version)
EXTD=YEAR: 1994
EXTT0=
EXTT1=
EXTT2=
EXTT3=
EXTT4=
EXTT5=
EXTT6=
EXTT7=
EXTT8=
EXTT9=
EXTT10=
PLAYORDER=
